<svg xmlns="http://www.w3.org/2000/svg" viewBox="0 0 64 64" fill="none" shape-rendering="auto"><metadata xmlns:rdf="http://www.w3.org/1999/02/22-rdf-syntax-ns#" xmlns:xsi="http://www.w3.org/2001/XMLSchema-instance" xmlns:dc="http://purl.org/dc/elements/1.1/" xmlns:dcterms="http://purl.org/dc/terms/"><rdf:RDF><rdf:Description><dc:title>Personas by Draftbit</dc:title><dc:creator>Draftbit - draftbit.com</dc:creator><dc:source xsi:type="dcterms:URI">https://personas.draftbit.com/</dc:source><dcterms:license xsi:type="dcterms:URI">https://creativecommons.org/licenses/by/4.0/</dcterms:license><dc:rights>Remix of „Personas by Draftbit” (https://personas.draftbit.com/) by „Draftbit - draftbit.com”, licensed under „CC BY 4.0” (https://creativecommons.org/licenses/by/4.0/)</dc:rights></rdf:Description></rdf:RDF></metadata><mask id="viewboxMask"><rect width="64" height="64" rx="32" ry="32" x="0" y="0" fill="#fff" /></mask><g mask="url(#viewboxMask)"><rect fill="#ffd5dc" width="64" height="64" x="0" y="0" /><path d="M37 46.08V52a5 5 0 0 1-10 0v-5.92A14.04 14.04 0 0 1 18.58 37h-.08a4.5 4.5 0 0 1-.5-8.97V27a14 14 0 1 1 28 0v1.03a4.5 4.5 0 0 1-.58 8.97A14.04 14.04 0 0 1 37 46.08Z" fill="#e7a391"/><mask id="personas-a" style="mask-type:luminance" maskUnits="userSpaceOnUse" x="14" y="13" width="36" height="44"><path d="M37 46.08V52a5 5 0 0 1-10 0v-5.92A14.04 14.04 0 0 1 18.58 37h-.08a4.5 4.5 0 0 1-.5-8.97V27a14 14 0 1 1 28 0v1.03a4.5 4.5 0 0 1-.58 8.97A14.04 14.04 0 0 1 37 46.08Z" fill="#fff"/></mask><g mask="url(#personas-a)"><path d="M32 13a14 14 0 0 1 14 14v6a14 14 0 1 1-28 0v-6a14 14 0 0 1 14-14Z" fill="#fff" style="mix-blend-mode:overlay" opacity=".36"/></g><g transform="translate(20 24)"><path d="M3.63 4A1 1 0 0 0 4 5.37 4.5 4.5 0 0 0 6.25 6a4.5 4.5 0 0 0 2.25-.63 1 1 0 0 0-1-1.74c-.43.25-.85.37-1.25.37S5.43 3.88 5 3.63A1 1 0 0 0 3.63 4ZM15.63 4A1 1 0 0 0 16 5.37a4.5 4.5 0 0 0 2.25.63 4.5 4.5 0 0 0 2.25-.63 1 1 0 0 0-1-1.74 2.5 2.5 0 0 1-1.25.37c-.4 0-.82-.12-1.25-.37a1 1 0 0 0-1.37.37Z" fill="#1B0640"/></g><g transform="translate(2 2)"><path d="M17 19.8a14 14 0 0 1 26 0l.24.2a1 1 0 0 1 .34.54l.62 2.64a.5.5 0 0 1-.77.52C38.99 20.57 34.5 19 30 19S21 20.57 16.58 23.7a.5.5 0 0 1-.77-.52l.62-2.64a1 1 0 0 1 .34-.55l.24-.19Z" fill="#E15C66"/><path d="M30 15c6.45 0 12.01 4.04 13.25 5 .16.14.28.32.33.53l.62 2.6c.1.46-.44.83-.83.57C41.06 22.18 35.57 19 30 19c-5.57 0-11.05 3.18-13.36 4.7-.4.26-.93-.1-.82-.56l.6-2.6c.05-.21.17-.4.34-.53 1.23-.96 6.8-5 13.24-5Z" fill="#000" style="mix-blend-mode:overlay" opacity=".26"/></g><g transform="translate(11 44)"><path d="M16 7v.47a5 5 0 1 0 10 0V7c7.06 1.52 12.93 6.74 16 13H0C3.07 13.74 8.94 8.52 16 7Z" fill="#f55d81"/></g><g transform="translate(23 36)"><path d="M5 5h8s-1 2.5-4 2.5S5 5 5 5Z" fill="#DC5C7A"/><path d="M5.39 4.22A2.1 2.1 0 0 1 9 4a2.1 2.1 0 0 1 3.61.22l.4.78H4.99l.39-.78Z" fill="#F57B98"/></g><g transform="translate(24 28)"><path d="M4.25 5a.75.75 0 0 1 1.5 0c0 .84.91 1.75 2.25 1.75 1.34 0 2.25-.91 2.25-1.75a.75.75 0 0 1 1.5 0c0 1.66-1.59 3.25-3.75 3.25S4.25 6.66 4.25 5Z" fill="#000" style="mix-blend-mode:overlay" opacity=".36"/></g><g transform="translate(14 26)"><path d="m12.47 9.46 2.43-.83A2.5 2.5 0 0 1 18 10a2.5 2.5 0 0 1 3.1-1.37l2.43.83A18.65 18.65 0 0 0 32 2.7V9A14 14 0 1 1 4 9V2.7c2.05 2.94 5 5.43 8.47 6.76Z" fill="#362c47"/><mask id="facialHairBeardMustache-a" style="mask-type:luminance" maskUnits="userSpaceOnUse" x="4" y="2" width="28" height="21"><path d="m12.47 9.46 2.43-.83A2.5 2.5 0 0 1 18 10a2.5 2.5 0 0 1 3.1-1.37l2.43.83A18.65 18.65 0 0 0 32 2.7V9A14 14 0 1 1 4 9V2.7c2.05 2.94 5 5.43 8.47 6.76Z" fill="#fff"/></mask><g mask="url(#facialHairBeardMustache-a)"><path d="M32 9V2.7c-2.05 2.94-5 5.43-8.47 6.76l2.8.96a1 1 0 0 1-.07 1.91l-5.08 1.3A2.71 2.71 0 0 1 18 12.05a2.72 2.72 0 0 1-3.18 1.58l-5.08-1.3a1 1 0 0 1-.08-1.91l2.81-.96A18.65 18.65 0 0 1 4 2.7V9a14 14 0 1 0 28 0Z" fill="#fff" style="mix-blend-mode:overlay" opacity=".26"/><path d="M22 13.42v.08a3 3 0 0 1-3 3h-2a3 3 0 0 1-3-3.08l.82.21A2.71 2.71 0 0 0 18 12.05a2.72 2.72 0 0 0 3.18 1.58l.82-.2Z" fill="#FFFEFD"/></g></g></g></svg>